<svg width="21" height="24" viewBox="0 0 21 24" fill="none" xmlns="http://www.w3.org/2000/svg">
<path d="M0 0H20V20.476C20 21.3487 18.9604 21.8026 18.3203 21.2095L10 13.5L2.13739 20.9488C1.50773 21.5453 0.46916 21.1122 0.44989 20.2451L0 0Z" fill="black"/>
<path fill-rule="evenodd" clip-rule="evenodd" d="M0 0.5V22.1524C0 22.4152 0.103434 22.6674 0.287934 22.8545C0.6757 23.2478 1.30885 23.2522 1.70211 22.8645L10.2507 14.4353L18.7994 22.8645C18.9865 23.049 19.2387 23.1524 19.5015 23.1524C20.0538 23.1524 20.5015 22.7047 20.5015 22.1524V0.5C20.5015 0.223858 20.2776 0 20.0015 0H0.5C0.223858 0 0 0.223858 0 0.5ZM1.5 20.9572V1.5H19.0015V20.9572L10.9529 13.0211C10.5635 12.6372 9.93798 12.6372 9.54863 13.0211L1.5 20.9572Z" fill="black"/>
</svg>
